<?xml version="1.0" encoding="UTF-8"?>
<svg id="_图层_2" data-name="图层 2" xmlns="http://www.w3.org/2000/svg" viewBox="0 0 224.3 184.8">
  <defs>
    <style>
      .cls-1 {
        fill: #009fe3;
      }
    </style>
  </defs>
  <g id="layer">
    <path class="cls-1" d="M112.4,0L0,184.8h224.3L112.4,0ZM133.9,163.3c-5.2,0-10.1-1.5-14.2-4.2-.1.1-.2.2-.3.2-12.7,8.8-26.6,14.5-39.4,14.5h-2c-9.5-.4-16.8-4.3-21.4-9.4-4.6-5.1-6.7-11.3-7-16.6v-1.3c.2-15.8,11-32.9,25.7-46.7,14.8-13.7,33.9-24.3,52.7-24.5h.3c8.7,0,16.1,2.9,21.2,8,5.1,5.1,7.7,12.3,7.7,19.9,0,5.3-1.2,10.9-3.6,16.5,4.1,4.6,6.6,10.7,6.6,17.3,0,14.5-11.8,26.3-26.3,26.3M142.6,90.1c-3.1-3.1-7.6-5.1-14.3-5.1h-.2c-15,0-32.6,9.2-46.1,21.9-13.6,12.5-22.8,28.6-22.6,39.6v.9c.1,3.1,1.5,7.2,4.4,10.5,3,3.2,7.4,5.9,14.6,6.2h1.6c9.5,0,21.3-4.4,32.5-11.9-3.1-4.3-4.9-9.6-4.9-15.2,0-14.5,11.8-26.3,26.3-26.3,4.2,0,8.1,1,11.7,2.8,1.3-3.7,1.9-7.1,1.9-10.3-.1-5.6-1.9-10-4.9-13.1"/>
  </g>
</svg>