<?xml version="1.0" encoding="UTF-8"?>
<svg id="_图层_2" data-name="图层 2" xmlns="http://www.w3.org/2000/svg" viewBox="0 0 278.98 149.22">
  <defs>
    <style>
      .cls-1 {
        fill: #cfb991;
      }

      .cls-2 {
        fill: #9d9795;
      }
    </style>
  </defs>
  <g id="Layer_1" data-name="Layer 1">
    <path d="M147.93,149.21l18.84-44.27h31.22c45.18,0,62.33-18.54,74.18-46.4,4.39-10.31,11.74-27.57,2-42.25S244.07,0,229.51,0H63.56l-23.4,55h30l-16.65,39.22h-30.1L0,149.22h147.93Z"/>
    <path class="cls-2" d="M265.7,21.91c-5.27-8-16.79-11.72-36.21-11.72H70.31l-14.73,34.58h30l-25.4,59.65h-30.06l-14.73,34.58h125.81l14.73-34.6h-30.52l4.1-9.64h68.46c44,0,55.78-19,64.8-40.21,4.86-11.4,9.07-23.32,2.91-32.64M150.81,44.77h50.28c6.93,0,5.94,3.47,5,5.63-2.57,6-8.75,9.77-16.1,9.77h-45.74l6.56-15.4Z"/>
    <path class="cls-1" d="M229.51,15.5H73.8l-10.2,24h30l-29.92,70.25h-30.05l-10.22,24h114.28l10.22-24h-30.51l8.63-20.27h72c41.26,0,51.63-17.48,59.93-37s12.82-37-28.43-37M190.06,65.48h-53.82l11.07-26h53.78c9.52,0,13.36,4.9,9.9,13s-11.45,13-21,13"/>
  </g>
</svg>